<mxfile host="Electron" modified="2024-06-26T19:14:26.402Z" agent="Mozilla/5.0 (Windows NT 10.0; Win64; x64) AppleWebKit/537.36 (KHTML, like Gecko) draw.io/24.6.1 Chrome/124.0.6367.207 Electron/30.0.6 Safari/537.36" etag="czceUzZirLbFs0NbHdYD" version="24.6.1" type="device">
  <diagram name="Page-1" id="c4acf3e9-155e-7222-9cf6-157b1a14988f">
    <mxGraphModel dx="2474" dy="1196" grid="1" gridSize="10" guides="1" tooltips="1" connect="1" arrows="1" fold="1" page="0" pageScale="1" pageWidth="850" pageHeight="1100" background="none" math="0" shadow="0">
      <root>
        <mxCell id="0" />
        <mxCell id="1" parent="0" />
        <mxCell id="IGM433AOXhhKyrPZlCMT-3" value="" style="rounded=0;whiteSpace=wrap;html=1;opacity=30;fillColor=#dae8fc;strokeColor=#6c8ebf;" parent="1" vertex="1">
          <mxGeometry x="-60" y="1600" width="400" height="220" as="geometry" />
        </mxCell>
        <mxCell id="IGM433AOXhhKyrPZlCMT-1" value="" style="rounded=0;whiteSpace=wrap;html=1;fillColor=#ffe6cc;strokeColor=#d79b00;opacity=30;" parent="1" vertex="1">
          <mxGeometry x="770" y="230" width="1160" height="610" as="geometry" />
        </mxCell>
        <mxCell id="wVd6VwsT4X-iDCgez-aS-33" value="" style="rounded=0;whiteSpace=wrap;html=1;fillColor=#f5f5f5;fontColor=#333333;strokeColor=#666666;" parent="1" vertex="1">
          <mxGeometry x="360" y="860" width="1650" height="1330" as="geometry" />
        </mxCell>
        <mxCell id="wVd6VwsT4X-iDCgez-aS-29" style="edgeStyle=orthogonalEdgeStyle;rounded=0;orthogonalLoop=1;jettySize=auto;html=1;endArrow=block;endFill=0;dashed=1;entryX=0.5;entryY=1;entryDx=0;entryDy=0;" parent="1" source="wVd6VwsT4X-iDCgez-aS-14" target="wVd6VwsT4X-iDCgez-aS-31" edge="1">
          <mxGeometry relative="1" as="geometry">
            <mxPoint x="1055" y="1100" as="targetPoint" />
          </mxGeometry>
        </mxCell>
        <mxCell id="wVd6VwsT4X-iDCgez-aS-14" value="&lt;b&gt;MainController&lt;/b&gt;" style="swimlane;fontStyle=1;align=center;verticalAlign=top;childLayout=stackLayout;horizontal=1;startSize=26;horizontalStack=0;resizeParent=1;resizeParentMax=0;resizeLast=0;collapsible=1;marginBottom=0;whiteSpace=wrap;html=1;" parent="1" vertex="1">
          <mxGeometry x="800" y="1220" width="510" height="220" as="geometry" />
        </mxCell>
        <mxCell id="wVd6VwsT4X-iDCgez-aS-15" value="&lt;p style=&quot;margin:0 0 0 4px;line-height:1.6;&quot;&gt;- instance: MainController&lt;br&gt;- gameControllers: List&amp;lt;GameController&amp;gt;&lt;/p&gt;" style="text;strokeColor=none;fillColor=none;align=left;verticalAlign=top;spacingLeft=4;spacingRight=4;overflow=hidden;rotatable=0;points=[[0,0.5],[1,0.5]];portConstraint=eastwest;whiteSpace=wrap;html=1;" parent="wVd6VwsT4X-iDCgez-aS-14" vertex="1">
          <mxGeometry y="26" width="510" height="44" as="geometry" />
        </mxCell>
        <mxCell id="wVd6VwsT4X-iDCgez-aS-16" value="" style="line;strokeWidth=1;fillColor=none;align=left;verticalAlign=middle;spacingTop=-1;spacingLeft=3;spacingRight=3;rotatable=0;labelPosition=right;points=[];portConstraint=eastwest;strokeColor=inherit;" parent="wVd6VwsT4X-iDCgez-aS-14" vertex="1">
          <mxGeometry y="70" width="510" height="8" as="geometry" />
        </mxCell>
        <mxCell id="wVd6VwsT4X-iDCgez-aS-17" value="+ deleteGame(int): void&lt;br&gt;+ createGame(GameListener, String): GameControllerInterface&lt;br&gt;+ getInstance(): MainController&lt;br&gt;- addPlayerToGame(String, GameListener, List&amp;lt;GameController&amp;gt;): GameControllerInterface?&lt;br&gt;+ joinFirstAvailableGame(GameListener, String): GameControllerInterface&lt;br&gt;+ resetInstance(): void&lt;br&gt;+ joinSpecificGame(GameListener, String, int): GameControllerInterface&lt;br&gt;+ reconnectToGame(GameListener, String): GameControllerInterface&lt;br&gt;+ getGameControllers(): List&amp;lt;GameController&amp;gt;" style="text;strokeColor=none;fillColor=none;align=left;verticalAlign=top;spacingLeft=4;spacingRight=4;overflow=hidden;rotatable=0;points=[[0,0.5],[1,0.5]];portConstraint=eastwest;whiteSpace=wrap;html=1;" parent="wVd6VwsT4X-iDCgez-aS-14" vertex="1">
          <mxGeometry y="78" width="510" height="142" as="geometry" />
        </mxCell>
        <mxCell id="wVd6VwsT4X-iDCgez-aS-22" style="edgeStyle=orthogonalEdgeStyle;rounded=0;orthogonalLoop=1;jettySize=auto;html=1;endArrow=diamondThin;endFill=1;startArrow=none;startFill=0;" parent="1" source="wVd6VwsT4X-iDCgez-aS-18" target="wVd6VwsT4X-iDCgez-aS-14" edge="1">
          <mxGeometry relative="1" as="geometry" />
        </mxCell>
        <mxCell id="wVd6VwsT4X-iDCgez-aS-23" style="edgeStyle=orthogonalEdgeStyle;rounded=0;orthogonalLoop=1;jettySize=auto;html=1;" parent="1" source="wVd6VwsT4X-iDCgez-aS-18" target="wVd6VwsT4X-iDCgez-aS-24" edge="1">
          <mxGeometry relative="1" as="geometry">
            <mxPoint x="660" y="1745" as="targetPoint" />
          </mxGeometry>
        </mxCell>
        <mxCell id="wVd6VwsT4X-iDCgez-aS-32" style="edgeStyle=orthogonalEdgeStyle;rounded=0;orthogonalLoop=1;jettySize=auto;html=1;endArrow=block;endFill=0;dashed=1;" parent="1" source="wVd6VwsT4X-iDCgez-aS-18" target="wVd6VwsT4X-iDCgez-aS-30" edge="1">
          <mxGeometry relative="1" as="geometry" />
        </mxCell>
        <mxCell id="wVd6VwsT4X-iDCgez-aS-18" value="&lt;b&gt;GameController&lt;/b&gt;" style="swimlane;fontStyle=1;align=center;verticalAlign=top;childLayout=stackLayout;horizontal=1;startSize=26;horizontalStack=0;resizeParent=1;resizeParentMax=0;resizeLast=0;collapsible=1;marginBottom=0;whiteSpace=wrap;html=1;" parent="1" vertex="1">
          <mxGeometry x="800" y="1490" width="510" height="510" as="geometry" />
        </mxCell>
        <mxCell id="wVd6VwsT4X-iDCgez-aS-19" value="&lt;p style=&quot;margin:0 0 0 4px;line-height:1.6;&quot;&gt;- game: Game&lt;br&gt;- random: Random&lt;br&gt;- timer: Timer&lt;br&gt;- TIMEOUT_MILLIS: long&lt;br&gt;- lastStatus: GameStatus&lt;br&gt;- timerTask: TimerTask&lt;br&gt;- pingExecutor: ScheduledExecutorService&lt;br&gt;- playerPingTimestamps: Map&amp;lt;Player, Long&amp;gt;&lt;/p&gt;" style="text;strokeColor=none;fillColor=none;align=left;verticalAlign=top;spacingLeft=4;spacingRight=4;overflow=hidden;rotatable=0;points=[[0,0.5],[1,0.5]];portConstraint=eastwest;whiteSpace=wrap;html=1;" parent="wVd6VwsT4X-iDCgez-aS-18" vertex="1">
          <mxGeometry y="26" width="510" height="164" as="geometry" />
        </mxCell>
        <mxCell id="wVd6VwsT4X-iDCgez-aS-20" value="" style="line;strokeWidth=1;fillColor=none;align=left;verticalAlign=middle;spacingTop=-1;spacingLeft=3;spacingRight=3;rotatable=0;labelPosition=right;points=[];portConstraint=eastwest;strokeColor=inherit;" parent="wVd6VwsT4X-iDCgez-aS-18" vertex="1">
          <mxGeometry y="190" width="510" height="8" as="geometry" />
        </mxCell>
        <mxCell id="wVd6VwsT4X-iDCgez-aS-21" value="+ selectCardObjective(Player, int): void&lt;br&gt;+ drawCardFromDeck(Player, DeckType): void&lt;br&gt;+ sendChatMessage(ChatMessage): void&lt;br&gt;+ updateGameSize(int): void&lt;br&gt;+ placeCardOnCodex(Player, int, boolean, int, int): void&lt;br&gt;- handlePlayerTimeout(Player): void&lt;br&gt;+ reconnectPlayer(String, GameListener): void&lt;br&gt;+ drawCardDisplayed(Player, DeckType, int): void&lt;br&gt;- startPingThread(): void&lt;br&gt;- checkPings(): void&lt;br&gt;+ ping(String): void&lt;br&gt;+ leaveGame(String): void&lt;br&gt;+ run(): void&lt;br&gt;- updateCurrPlayer(): void&lt;br&gt;- checkFinalAction(Player): void&lt;br&gt;- startTimer(): boolean&lt;br&gt;+ placeStarterOnCodex(Player, Side): void&lt;br&gt;+ addPlayerToGame(String, GameListener): void&lt;br&gt;- stopTimer(): void&lt;br&gt;- getSide(Player, int, boolean): Side?&lt;br&gt;+ getGame(): Game" style="text;strokeColor=none;fillColor=none;align=left;verticalAlign=top;spacingLeft=4;spacingRight=4;overflow=hidden;rotatable=0;points=[[0,0.5],[1,0.5]];portConstraint=eastwest;whiteSpace=wrap;html=1;" parent="wVd6VwsT4X-iDCgez-aS-18" vertex="1">
          <mxGeometry y="198" width="510" height="312" as="geometry" />
        </mxCell>
        <mxCell id="wVd6VwsT4X-iDCgez-aS-24" value="Game" style="swimlane;fontStyle=1;align=center;verticalAlign=top;childLayout=stackLayout;horizontal=1;startSize=26;horizontalStack=0;resizeParent=1;resizeParentMax=0;resizeLast=0;collapsible=1;marginBottom=0;whiteSpace=wrap;html=1;" parent="1" vertex="1">
          <mxGeometry x="-10" y="1690" width="280" height="56" as="geometry" />
        </mxCell>
        <mxCell id="wVd6VwsT4X-iDCgez-aS-28" value="A Game object of the model" style="text;html=1;align=center;verticalAlign=middle;whiteSpace=wrap;rounded=0;" parent="wVd6VwsT4X-iDCgez-aS-24" vertex="1">
          <mxGeometry y="26" width="280" height="30" as="geometry" />
        </mxCell>
        <mxCell id="wVd6VwsT4X-iDCgez-aS-30" value="&lt;p style=&quot;margin:0px;margin-top:4px;text-align:center;&quot;&gt;&lt;i&gt;&amp;lt;&amp;lt;Interface&amp;gt;&amp;gt;&lt;/i&gt;&lt;br&gt;&lt;b&gt;GameControllerInterface&lt;/b&gt;&lt;/p&gt;&lt;hr size=&quot;1&quot; style=&quot;border-style:solid;&quot;&gt;&lt;p style=&quot;margin:0px;margin-left:4px;&quot;&gt;&lt;span style=&quot;font-size: 14px; text-wrap: nowrap;&quot;&gt;+ ping(String): void&lt;/span&gt;&lt;br style=&quot;font-size: 14px; text-wrap: nowrap;&quot;&gt;&lt;span style=&quot;font-size: 14px; text-wrap: nowrap;&quot;&gt;+ placeStarterOnCodex(Player, Side): void&lt;/span&gt;&lt;br style=&quot;font-size: 14px; text-wrap: nowrap;&quot;&gt;&lt;span style=&quot;font-size: 14px; text-wrap: nowrap;&quot;&gt;+ selectCardObjective(Player, int): void&lt;/span&gt;&lt;br style=&quot;font-size: 14px; text-wrap: nowrap;&quot;&gt;&lt;span style=&quot;font-size: 14px; text-wrap: nowrap;&quot;&gt;+ updateGameSize(int): void&lt;/span&gt;&lt;br style=&quot;font-size: 14px; text-wrap: nowrap;&quot;&gt;&lt;span style=&quot;font-size: 14px; text-wrap: nowrap;&quot;&gt;+ leaveGame(String): void&lt;/span&gt;&lt;br style=&quot;font-size: 14px; text-wrap: nowrap;&quot;&gt;&lt;span style=&quot;font-size: 14px; text-wrap: nowrap;&quot;&gt;+ drawCardDisplayed(Player, DeckType, int): void&lt;/span&gt;&lt;br style=&quot;font-size: 14px; text-wrap: nowrap;&quot;&gt;&lt;span style=&quot;font-size: 14px; text-wrap: nowrap;&quot;&gt;+ placeCardOnCodex(Player, int, boolean, int, int): void&lt;/span&gt;&lt;br style=&quot;font-size: 14px; text-wrap: nowrap;&quot;&gt;&lt;span style=&quot;font-size: 14px; text-wrap: nowrap;&quot;&gt;+ sendChatMessage(ChatMessage): void&lt;/span&gt;&lt;br style=&quot;font-size: 14px; text-wrap: nowrap;&quot;&gt;&lt;span style=&quot;font-size: 14px; text-wrap: nowrap;&quot;&gt;+ drawCardFromDeck(Player, DeckType): void&lt;/span&gt;&lt;br&gt;&lt;/p&gt;" style="verticalAlign=top;align=left;overflow=fill;html=1;whiteSpace=wrap;" parent="1" vertex="1">
          <mxGeometry x="1350" y="410" width="510" height="200" as="geometry" />
        </mxCell>
        <mxCell id="wVd6VwsT4X-iDCgez-aS-31" value="&lt;p style=&quot;margin:0px;margin-top:4px;text-align:center;&quot;&gt;&lt;i&gt;&amp;lt;&amp;lt;Interface&amp;gt;&amp;gt;&lt;/i&gt;&lt;br&gt;&lt;b&gt;MainControllerInterface&lt;/b&gt;&lt;/p&gt;&lt;hr size=&quot;1&quot; style=&quot;border-style:solid;&quot;&gt;&lt;p style=&quot;margin:0px;margin-left:4px;&quot;&gt;&lt;span style=&quot;font-size: 14px; text-wrap: nowrap; background-color: initial;&quot;&gt;+ joinSpecificGame(GameListener, String, int): GameControllerInterface&lt;/span&gt;&lt;br&gt;&lt;/p&gt;&lt;p style=&quot;margin:0px;margin-left:4px;&quot;&gt;&lt;span style=&quot;font-size: 14px; text-wrap: nowrap;&quot;&gt;+ createGame(GameListener, String): GameControllerInterface&lt;/span&gt;&lt;br style=&quot;font-size: 14px; text-wrap: nowrap;&quot;&gt;&lt;span style=&quot;font-size: 14px; text-wrap: nowrap;&quot;&gt;+ reconnectToGame(GameListener, String): GameControllerInterface&lt;/span&gt;&lt;br style=&quot;font-size: 14px; text-wrap: nowrap;&quot;&gt;&lt;span style=&quot;font-size: 14px; text-wrap: nowrap;&quot;&gt;+ joinFirstAvailableGame(GameListener, String): GameControllerInterface&lt;/span&gt;&lt;br&gt;&lt;/p&gt;" style="verticalAlign=top;align=left;overflow=fill;html=1;whiteSpace=wrap;" parent="1" vertex="1">
          <mxGeometry x="800" y="460" width="510" height="130" as="geometry" />
        </mxCell>
        <mxCell id="wVd6VwsT4X-iDCgez-aS-34" value="controller" style="shape=umlFrame;whiteSpace=wrap;html=1;pointerEvents=0;width=100;height=40;" parent="1" vertex="1">
          <mxGeometry x="360" y="860" width="1650" height="1330" as="geometry" />
        </mxCell>
        <mxCell id="wVd6VwsT4X-iDCgez-aS-35" style="edgeStyle=orthogonalEdgeStyle;rounded=0;orthogonalLoop=1;jettySize=auto;html=1;" parent="1" source="wVd6VwsT4X-iDCgez-aS-14" target="wVd6VwsT4X-iDCgez-aS-14" edge="1">
          <mxGeometry relative="1" as="geometry" />
        </mxCell>
        <mxCell id="IGM433AOXhhKyrPZlCMT-2" value="rmi" style="shape=umlFrame;whiteSpace=wrap;html=1;pointerEvents=0;width=90;height=40;fillColor=#fad7ac;strokeColor=#b46504;" parent="1" vertex="1">
          <mxGeometry x="770" y="230" width="1160" height="610" as="geometry" />
        </mxCell>
        <mxCell id="IGM433AOXhhKyrPZlCMT-7" value="model" style="shape=umlFrame;whiteSpace=wrap;html=1;pointerEvents=0;fillColor=#dae8fc;strokeColor=#6c8ebf;width=50;height=30;" parent="1" vertex="1">
          <mxGeometry x="-60" y="1600" width="400" height="220" as="geometry" />
        </mxCell>
      </root>
    </mxGraphModel>
  </diagram>
</mxfile>
